<?xml version="1.0" standalone="no"?>
<!DOCTYPE svg PUBLIC "-//W3C//DTD SVG 20010904//EN"
 "http://www.w3.org/TR/2001/REC-SVG-20010904/DTD/svg10.dtd">
<svg version="1.0" xmlns="http://www.w3.org/2000/svg"
 width="800.000000pt" height="800.000000pt" viewBox="0 0 800.000000 800.000000"
 preserveAspectRatio="xMidYMid meet">
<metadata>
Created by potrace 1.11, written by Peter Selinger 2001-2013
</metadata>
<g transform="translate(0.000000,800.000000) scale(0.100000,-0.100000)"
fill="#000000" stroke="none">
<path d="M3909 6339 c-27 -33 -116 -147 -227 -289 -25 -31 -194 -231 -217
-256 -5 -6 -30 -35 -55 -64 -25 -29 -50 -58 -55 -64 -6 -6 -51 -58 -100 -116
-50 -58 -92 -107 -95 -110 -3 -3 -28 -32 -55 -64 -28 -33 -65 -76 -83 -95 -31
-34 -116 -159 -445 -649 -139 -206 -147 -221 -522 -957 -258 -506 -282 -550
-456 -842 -177 -296 -172 -290 -368 -502 -34 -38 -181 -198 -214 -235 -16 -17
-45 -49 -66 -71 -112 -121 -232 -257 -211 -240 14 11 27 22 30 25 13 13 188
169 208 186 13 10 34 28 46 39 12 11 56 50 97 86 41 37 91 82 112 100 22 19
49 43 61 54 13 11 56 49 97 85 160 140 164 145 358 490 100 179 187 332 192
340 9 15 285 497 331 580 38 67 127 223 137 240 18 29 409 716 455 800 145
261 191 339 214 366 79 92 252 295 292 343 19 24 42 50 51 60 13 13 105 121
201 236 9 11 29 34 43 50 15 17 85 108 156 203 l130 173 32 -25 c18 -13 124
-92 237 -176 358 -267 361 -269 447 -375 46 -55 98 -118 117 -140 18 -22 108
-131 200 -242 l167 -202 65 -173 c36 -95 78 -207 94 -248 15 -41 56 -149 90
-240 125 -334 152 -406 170 -455 60 -165 94 -251 101 -255 7 -5 159 -146 248
-230 26 -25 99 -92 161 -150 179 -166 184 -172 329 -389 76 -113 176 -261 222
-329 46 -68 96 -142 111 -165 58 -89 11 -37 503 -556 127 -134 247 -255 213
-216 -14 17 -63 80 -108 140 -46 61 -86 112 -89 115 -3 3 -26 32 -51 65 -25
33 -49 65 -55 71 -5 7 -34 43 -62 80 -29 38 -88 114 -130 170 -88 113 -76 96
-226 309 -335 475 -393 558 -402 573 -5 8 -23 30 -40 47 -16 17 -77 83 -135
145 -58 62 -125 135 -150 161 -102 107 -235 251 -246 267 -14 20 -285 648
-307 712 -18 50 -65 182 -151 422 l-56 157 -187 228 c-102 126 -200 245 -217
267 -17 21 -40 49 -51 62 -11 12 -51 62 -90 110 -62 78 -161 163 -295 254 -12
8 -30 22 -40 30 -10 8 -29 23 -42 32 -32 23 -228 169 -315 234 l-71 53 -33
-40z"/>
<path d="M4140 5529 c0 -21 32 -123 48 -154 9 -16 58 -94 109 -172 85 -129 99
-156 142 -286 27 -80 54 -177 61 -216 7 -39 15 -69 17 -68 2 2 5 35 8 73 2 38
7 101 10 139 6 68 4 74 -54 223 -33 83 -70 172 -81 197 -11 25 -25 56 -29 69
-11 27 -231 213 -231 195z"/>
<path d="M3339 5073 c-105 -120 -228 -315 -277 -438 -18 -44 -32 -83 -32 -88
0 -19 147 135 188 198 110 170 189 314 204 373 9 34 15 62 13 62 -1 0 -45 -48
-96 -107z"/>
<path d="M3653 4873 c-23 -68 -40 -134 -38 -150 2 -15 7 -55 11 -88 3 -33 9
-66 13 -72 4 -7 19 36 34 95 24 92 28 123 25 222 l-3 114 -42 -121z"/>
<path d="M2335 2263 c-263 -49 -325 -78 -371 -177 -37 -79 -27 -87 107 -85 60
0 112 5 115 10 3 5 -7 10 -23 10 -50 2 -56 4 -60 15 -4 11 123 40 220 51 l38
4 -77 -103 c-134 -180 -132 -178 -170 -178 -19 0 -47 -6 -63 -14 -31 -16 -83
-106 -65 -113 6 -2 19 -9 28 -16 16 -12 12 -21 -42 -100 -88 -130 -102 -177
-51 -177 23 0 79 54 79 75 0 7 23 47 51 89 l50 76 57 -28 c31 -16 155 -77 275
-137 159 -80 220 -106 228 -98 16 16 14 140 -2 159 -24 29 -202 113 -394 185
-97 37 -99 38 -57 40 23 1 45 2 50 3 4 1 39 6 77 10 114 12 135 16 240 42 148
37 204 76 250 171 17 35 23 63 22 103 -4 101 -62 148 -218 175 -75 14 -240 18
-294 8z m362 -173 c141 -44 54 -136 -189 -200 -62 -17 -129 -33 -148 -36 -19
-3 -52 -9 -73 -14 l-38 -8 24 31 c13 18 42 57 65 87 38 51 73 119 71 137 -1
15 40 21 141 19 58 -1 124 -8 147 -16z"/>
<path d="M5553 2198 c-35 -40 -62 -84 -126 -207 -63 -119 -64 -121 -82 -101
-26 29 -63 25 -144 -16 -86 -43 -172 -119 -200 -177 -25 -54 -20 -123 16 -189
44 -81 64 -76 192 56 40 42 74 76 76 76 2 0 0 -15 -4 -32 -13 -62 -7 -145 13
-167 11 -12 26 -21 34 -21 30 0 83 34 136 88 71 72 88 98 84 122 -3 17 -7 15
-43 -16 -51 -46 -96 -74 -117 -74 -20 0 -36 44 -31 85 10 76 42 144 167 354
88 148 108 200 86 226 -17 21 -33 19 -57 -7z m-224 -418 c-10 -28 -86 -106
-180 -183 -57 -46 -84 -43 -74 10 11 61 26 80 93 119 50 30 152 80 169 84 1 0
-3 -13 -8 -30z"/>
<path d="M5939 1964 c-7 -9 -20 -31 -29 -50 -8 -18 -53 -73 -100 -122 -138
-143 -134 -138 -131 -184 4 -82 65 -146 145 -155 36 -4 54 0 102 26 75 40 174
127 174 152 0 25 -6 24 -50 -11 -66 -53 -170 -89 -170 -60 0 6 5 10 10 10 20
0 107 90 130 135 25 48 24 83 -3 210 -12 52 -17 60 -39 63 -14 2 -31 -4 -39
-14z m-20 -236 c1 -69 -10 -96 -52 -126 l-32 -22 -28 35 c-16 19 -35 35 -43
35 -26 0 -15 17 63 93 87 86 91 85 92 -15z"/>
<path d="M4561 1904 c-54 -48 -94 -129 -79 -158 6 -11 16 -24 22 -28 7 -5 3
-17 -11 -36 -12 -17 -25 -43 -29 -58 l-7 -29 37 35 c21 19 49 54 64 77 18 29
36 44 54 48 16 3 42 8 59 11 35 7 34 4 -7 -51 -44 -59 -76 -143 -71 -186 9
-77 58 -99 123 -55 45 30 120 101 140 131 22 34 8 52 -20 27 -34 -32 -89 -62
-113 -62 -56 0 -30 88 55 189 36 42 46 61 44 84 -5 61 -17 63 -184 42 -25 -3
-27 -1 -17 16 10 20 5 39 -12 39 -5 0 -27 -16 -48 -36z"/>
<path d="M3082 1904 c-122 -59 -225 -193 -225 -292 0 -84 7 -105 44 -144 31
-33 42 -38 80 -38 24 0 63 9 85 19 59 27 184 147 184 177 0 22 -4 20 -65 -26
-111 -84 -188 -91 -211 -20 -7 19 -10 38 -7 42 2 4 43 28 91 53 123 64 175
115 185 183 12 72 -63 93 -161 46z m68 -60 c0 -44 -95 -139 -157 -158 -21 -7
-22 -6 -11 24 12 36 96 126 130 140 33 13 38 12 38 -6z"/>
<path d="M3655 1923 c-71 -18 -247 -186 -265 -254 -21 -78 10 -184 67 -229 37
-29 98 -23 155 16 67 47 168 147 173 172 2 12 2 22 -1 22 -3 0 -32 -18 -65
-41 -122 -83 -178 -96 -228 -53 -56 46 -40 95 54 164 61 45 75 49 75 20 0 -51
76 7 111 85 23 51 24 68 1 88 -18 17 -38 19 -77 10z"/>
<path d="M4104 1895 c-86 -43 -183 -157 -197 -233 -19 -94 51 -212 125 -212
37 0 97 35 133 76 13 16 31 24 51 24 43 0 114 53 114 85 l0 24 -36 -24 c-54
-37 -67 -24 -38 38 33 73 39 142 14 167 -11 11 -17 26 -14 33 9 23 -24 47 -65
47 -20 0 -60 -11 -87 -25z m58 -127 c-19 -38 -27 -71 -28 -115 -3 -74 -5 -79
-51 -98 -74 -31 -99 -13 -88 66 5 36 16 61 38 86 28 31 133 111 149 112 3 1
-6 -23 -20 -51z"/>
</g>
</svg>
